<svg xmlns="http://www.w3.org/2000/svg" xmlns:xlink="http://www.w3.org/1999/xlink" preserveAspectRatio="xMidYMid meet" version="1.0" viewBox="1.0 26.0 510.0 460.0" zoomAndPan="magnify" style="fill: rgb(0, 0, 0);" original_string_length="1936" width="232.88787504140743px" height="210.022520037342px"><g><g><g id="__id0_ssito1qq6s"><path d="M501 195.63L501 476 192.6 476 318.76 195.63z" style="fill: rgb(234, 239, 255);"/></g><g id="__id1_ssito1qq6s"><path d="M324.15 36L196.04 326 11 326 11 36z" style="fill: rgb(137, 204, 255);"/></g><g id="__id2_ssito1qq6s" style="fill: rgb(33, 105, 172);"><path d="M396,410.82h-47.5c-5.522,0-10,4.478-10,10c0,5.522,4.478,10,10,10H396 c29.009,0,52.5-23.487,52.5-52.5c0-28.948-23.552-52.5-52.5-52.5c-2.326-0.36-16.191,2.266-27.978-9.522 c-6.14-6.14-9.522-14.301-9.522-22.978c0-17.921,14.579-32.5,32.5-32.5h47.5c5.522,0,10-4.478,10-10c0-5.522-4.478-10-10-10H391 c-28.948,0-52.5,23.552-52.5,52.5c0,14.02,5.462,27.203,15.379,37.121c18.381,18.379,39.847,14.993,42.121,15.379 c17.921,0,32.5,14.579,32.5,32.5C428.5,396.276,413.957,410.82,396,410.82z" style="fill: inherit;"/><path d="M205.188,330.041l128.11-290C336.214,33.439,331.371,26,324.15,26H11C5.477,26,1,30.478,1,36v290 c0,5.522,4.477,10,10,10h185.04C200,336,203.587,333.663,205.188,330.041z M21,316V46h287.801L189.525,316H21z" style="fill: inherit;"/><path d="M225.54,91.5c-4.921-2.508-10.942-0.551-13.45,4.37L141,235.386L69.91,95.87 c-2.507-4.921-8.529-6.876-13.45-4.37c-4.921,2.508-6.877,8.529-4.37,13.45l79.28,155.59c1.788,3.508,5.497,5.719,9.629,5.421 c4.163,0.299,7.856-1.938,9.631-5.421l79.28-155.59C232.417,100.029,230.461,94.008,225.54,91.5z" style="fill: inherit;"/><path d="M501,185.63H318.76c-3.936,0-7.505,2.308-9.119,5.896l-126.16,280.37 C180.505,478.508,185.352,486,192.6,486H501c5.522,0,10-4.478,10-10V195.63C511,190.107,506.522,185.63,501,185.63z M491,466 H208.065l117.16-260.37H491V466z" style="fill: inherit;"/></g></g></g></svg>